<svg width="32" height="32" viewBox="0 0 32 32" fill="none" xmlns="http://www.w3.org/2000/svg">
<path fill-rule="evenodd" clip-rule="evenodd" d="M16.0267 19.916C15.6374 19.916 15.24 19.976 14.904 20.1067C14.7041 20.1812 14.5197 20.2919 14.36 20.4333C14.2331 20.5467 14.1311 20.6853 14.0607 20.8403C13.9902 20.9952 13.9527 21.1631 13.9507 21.3333C13.9507 21.7667 14.1814 22.0693 14.36 22.232C14.5374 22.396 14.74 22.496 14.904 22.56C15.2414 22.6907 15.6374 22.7493 16.0267 22.7493C16.4134 22.7493 16.8107 22.6907 17.1467 22.56C17.3133 22.496 17.5147 22.396 17.6934 22.232C17.8199 22.1186 17.9215 21.9802 17.9917 21.8255C18.062 21.6708 18.0993 21.5032 18.1014 21.3333C18.0993 21.1631 18.0618 20.9952 17.9914 20.8403C17.9209 20.6853 17.819 20.5467 17.692 20.4333C17.5323 20.2919 17.3479 20.1812 17.148 20.1067C16.7886 19.9767 16.4088 19.9121 16.0267 19.916Z" fill="black"/>
<path d="M18.7162 16.8613C18.9349 16.5066 19.3696 16.0826 20.0229 16.0826C20.6736 16.0826 21.1082 16.5066 21.3282 16.8613C21.5576 17.232 21.6669 17.6813 21.6669 18.1253C21.6669 18.5693 21.5576 19.0186 21.3282 19.388C21.1082 19.7426 20.6749 20.1666 20.0216 20.1666C19.3696 20.1666 18.9349 19.7426 18.7149 19.388C18.4873 19.0065 18.3701 18.5694 18.3762 18.1253C18.3762 17.6813 18.4856 17.232 18.7162 16.8613ZM12.0216 16.084C11.3709 16.084 10.9362 16.5066 10.7149 16.8613C10.4871 17.2431 10.3699 17.6807 10.3762 18.1253C10.3762 18.568 10.4856 19.0186 10.7162 19.388C10.9362 19.7426 11.3696 20.1666 12.0229 20.1666C12.6736 20.1666 13.1082 19.7426 13.3296 19.388C13.5576 19.0173 13.6669 18.568 13.6669 18.1253C13.6669 17.6813 13.5576 17.232 13.3282 16.8613C13.1082 16.5066 12.6749 16.084 12.0216 16.084Z" fill="black"/>
<path fill-rule="evenodd" clip-rule="evenodd" d="M8.12662 5.66669C7.30796 5.66669 6.36662 5.90535 5.61196 6.55469C4.82929 7.22802 4.35996 8.25069 4.35996 9.58269V12.0867C4.36129 12.4787 4.42796 13.264 4.65196 13.9187C4.72529 14.1334 4.84129 14.4174 5.03729 14.6747C4.68778 15.3869 4.47091 16.1568 4.39729 16.9467C4.32929 17.5694 4.32796 18.224 4.33862 18.828C3.45862 19.1347 2.54529 19.5134 2.12529 19.7854C1.90974 19.9323 1.76013 20.1576 1.70837 20.4132C1.6566 20.6689 1.70679 20.9347 1.84821 21.1539C1.98964 21.373 2.21111 21.5283 2.46538 21.5865C2.71966 21.6447 2.98661 21.6012 3.20929 21.4654C3.36396 21.3654 3.82262 21.1547 4.42529 20.9254C4.51729 21.564 4.70262 22.1454 4.96262 22.6747C4.73114 22.8193 4.50178 22.9673 4.27462 23.1187C4.16431 23.19 4.06912 23.2822 3.99448 23.3903C3.91983 23.4984 3.86721 23.62 3.8396 23.7484C3.81199 23.8768 3.80994 24.0094 3.83356 24.1386C3.85719 24.2678 3.90603 24.391 3.97729 24.5014C4.04855 24.6117 4.14085 24.7069 4.2489 24.7815C4.35695 24.8561 4.47865 24.9088 4.60704 24.9364C4.73544 24.964 4.86801 24.966 4.99719 24.9424C5.12638 24.9188 5.24965 24.87 5.35996 24.7987L5.53462 24.684C5.70929 24.5707 5.91062 24.4387 6.12929 24.3054C6.91596 25.108 7.89196 25.728 8.90529 26.1947C11.28 27.288 14.092 27.6667 16 27.6667C17.908 27.6667 20.72 27.2867 23.0946 26.1947C24.108 25.728 25.0853 25.108 25.8706 24.3054C26.0893 24.4387 26.2906 24.5707 26.4653 24.684L26.64 24.7987C26.8627 24.9426 27.1336 24.9921 27.3929 24.9364C27.6522 24.8806 27.8787 24.7241 28.0226 24.5014C28.1665 24.2786 28.2161 24.0077 28.1603 23.7484C28.1046 23.4891 27.9481 23.2626 27.7253 23.1187L27.5746 23.02C27.428 22.924 27.2453 22.804 27.0373 22.6747C27.2973 22.1467 27.484 21.564 27.576 20.9254C28.1786 21.1547 28.636 21.3654 28.792 21.4654C29.0146 21.6012 29.2816 21.6447 29.5359 21.5865C29.7901 21.5283 30.0116 21.373 30.153 21.1539C30.2945 20.9347 30.3446 20.6689 30.2929 20.4132C30.2411 20.1576 30.0915 19.9323 29.876 19.7854C29.456 19.5134 28.5426 19.1347 27.6613 18.828C27.6821 18.1999 27.6625 17.571 27.6026 16.9454C27.5288 16.1559 27.312 15.3865 26.9626 14.6747C27.1586 14.4174 27.2746 14.1334 27.3493 13.9187C27.5346 13.3254 27.6325 12.7082 27.64 12.0867V9.58402C27.64 8.25069 27.1706 7.22935 26.388 6.55469C25.6346 5.90535 24.692 5.66669 23.8733 5.66669C23.3293 5.66669 22.7666 5.87602 22.312 6.08002C21.8212 6.31117 21.3416 6.56522 20.8746 6.84135L20.5906 7.00535L20.588 7.00669C20.236 7.21069 19.924 7.39335 19.6453 7.53602C19.4728 7.62402 19.3368 7.68624 19.2373 7.72269L19.1546 7.74935C18.8654 7.74501 18.5768 7.72185 18.2906 7.68002L18.0746 7.65335C17.3862 7.57111 16.6932 7.5337 16 7.54135C14.9706 7.54135 14.3866 7.59602 13.9253 7.65335L13.7093 7.68002C13.4231 7.72185 13.1345 7.74501 12.8453 7.74935L12.7626 7.72269C12.6232 7.66815 12.487 7.60583 12.3546 7.53602C12.0362 7.3671 11.7219 7.1906 11.412 7.00669L11.1253 6.84135C10.6588 6.56571 10.1796 6.3121 9.68929 6.08135C9.23462 5.87602 8.67062 5.66669 8.12662 5.66669ZM8.21596 23.4854C8.66129 23.8214 9.17462 24.1174 9.74129 24.3787C11.7813 25.3174 14.2906 25.6667 16 25.6667C17.7093 25.6667 20.2173 25.3174 22.2586 24.3787C22.8253 24.1174 23.3386 23.8214 23.784 23.4854C23.537 23.4426 23.3151 23.3087 23.1622 23.1101C23.0093 22.9115 22.9366 22.6627 22.9584 22.413C22.9802 22.1634 23.0949 21.931 23.2799 21.7619C23.4649 21.5928 23.7067 21.4993 23.9573 21.5C24.3933 21.5 24.84 21.6094 25.2533 21.76C25.4702 21.3025 25.5982 20.808 25.6306 20.3027C25.3649 20.2295 25.0924 20.1839 24.8173 20.1667C24.5521 20.1667 24.2977 20.0613 24.1102 19.8738C23.9226 19.6863 23.8173 19.4319 23.8173 19.1667C23.8173 18.9015 23.9226 18.6471 24.1102 18.4596C24.2977 18.272 24.5521 18.1667 24.8173 18.1667C25.0773 18.1667 25.3706 18.2067 25.6666 18.2627C25.6666 17.8947 25.6546 17.5334 25.6146 17.1627C25.5213 16.3027 25.2773 15.5387 24.7026 14.86C24.4709 14.5901 24.2082 14.3485 23.92 14.14C23.706 13.983 23.5632 13.7474 23.5229 13.4851C23.4827 13.2228 23.5483 12.9553 23.7053 12.7414C23.8623 12.5274 24.0979 12.3846 24.3602 12.3443C24.6225 12.3041 24.89 12.3697 25.104 12.5267C25.264 12.644 25.4142 12.764 25.5546 12.8867C25.6133 12.5827 25.64 12.264 25.64 12.0814V9.58402C25.64 8.74935 25.3653 8.31335 25.0826 8.07069C24.7733 7.80402 24.3333 7.66669 23.8733 7.66669C23.78 7.66669 23.5453 7.71869 23.1346 7.90402C22.752 8.07735 22.324 8.31469 21.872 8.57469L21.6146 8.72402C21.2573 8.93069 20.888 9.14535 20.5613 9.31335C20.3546 9.42002 20.14 9.52135 19.9333 9.59869C19.6972 9.69313 19.4462 9.7446 19.192 9.75069C18.7978 9.74995 18.4043 9.72009 18.0146 9.66135L17.832 9.63869C17.2242 9.56422 16.6121 9.5317 16 9.54135C15.056 9.54135 14.5533 9.59069 14.1693 9.63869L13.9853 9.66135C13.652 9.70535 13.304 9.74935 12.808 9.74935C12.524 9.74935 12.2586 9.66935 12.068 9.59869C11.8522 9.51728 11.642 9.42197 11.4386 9.31335C11.112 9.14535 10.7426 8.93069 10.3853 8.72402L10.128 8.57469C9.67596 8.31469 9.24796 8.07602 8.86529 7.90402C8.45462 7.71735 8.21996 7.66669 8.12662 7.66669C7.66796 7.66669 7.22662 7.80402 6.91729 8.07069C6.63462 8.31335 6.35996 8.75069 6.35996 9.58402V12.08C6.35996 12.2627 6.38662 12.5814 6.44529 12.8854C6.58751 12.7627 6.73773 12.6427 6.89596 12.5254C7.00189 12.4476 7.1221 12.3915 7.24972 12.3602C7.37734 12.3289 7.50987 12.3231 7.63975 12.343C7.76963 12.3629 7.89431 12.4083 8.00667 12.4764C8.11903 12.5445 8.21688 12.6341 8.29462 12.74C8.37237 12.846 8.42848 12.9662 8.45977 13.0938C8.49105 13.2214 8.4969 13.3539 8.47696 13.4838C8.45703 13.6137 8.41171 13.7384 8.34359 13.8507C8.27547 13.9631 8.18589 14.0609 8.07996 14.1387C7.76173 14.3742 7.50085 14.6142 7.29729 14.8587C6.72396 15.5387 6.47862 16.3014 6.38529 17.1614C6.34529 17.532 6.33196 17.8947 6.33196 18.2614C6.62929 18.204 6.92262 18.1654 7.18262 18.1654C7.44784 18.1654 7.70219 18.2707 7.88973 18.4582C8.07727 18.6458 8.18262 18.9001 8.18262 19.1654C8.18262 19.4306 8.07727 19.6849 7.88973 19.8725C7.70219 20.06 7.44784 20.1654 7.18262 20.1654C7.04129 20.1654 6.76662 20.2054 6.36929 20.3014C6.40529 20.832 6.53596 21.316 6.74662 21.7587C7.1605 21.5983 7.5989 21.5103 8.04262 21.4987C8.29325 21.498 8.535 21.5915 8.71999 21.7606C8.90499 21.9296 9.01975 22.162 9.04155 22.4117C9.06335 22.6614 8.99059 22.9101 8.8377 23.1087C8.6848 23.3073 8.46291 23.4426 8.21596 23.4854Z" fill="black"/>
</svg>
